<svg width="40" height="40" viewBox="0 0 40 40" fill="none" xmlns="http://www.w3.org/2000/svg">
<path d="M19.999 15.3769C18.7726 15.3769 17.5965 15.8641 16.7293 16.7312C15.8622 17.5984 15.375 18.7745 15.375 20.0009C15.375 21.2273 15.8622 22.4034 16.7293 23.2706C17.5965 24.1377 18.7726 24.6249 19.999 24.6249C21.2254 24.6249 22.4015 24.1377 23.2687 23.2706C24.1358 22.4034 24.623 21.2273 24.623 20.0009C24.623 18.7745 24.1358 17.5984 23.2687 16.7312C22.4015 15.8641 21.2254 15.3769 19.999 15.3769ZM19.999 23.0039C19.2023 23.0039 18.4382 22.6874 17.8749 22.1241C17.3115 21.5607 16.995 20.7966 16.995 19.9999C16.995 19.2032 17.3115 18.4391 17.8749 17.8758C18.4382 17.3124 19.2023 16.9959 19.999 16.9959C20.7957 16.9959 21.5598 17.3124 22.1231 17.8758C22.6865 18.4391 23.003 19.2032 23.003 19.9999C23.003 20.7966 22.6865 21.5607 22.1231 22.1241C21.5598 22.6874 20.7957 23.0039 19.999 23.0039ZM24.806 16.2849C25.0919 16.2849 25.3661 16.1713 25.5683 15.9692C25.7704 15.767 25.884 15.4928 25.884 15.2069C25.884 14.921 25.7704 14.6468 25.5683 14.4446C25.3661 14.2425 25.0919 14.1289 24.806 14.1289C24.5201 14.1289 24.2459 14.2425 24.0437 14.4446C23.8416 14.6468 23.728 14.921 23.728 15.2069C23.728 15.4928 23.8416 15.767 24.0437 15.9692C24.2459 16.1713 24.5201 16.2849 24.806 16.2849Z" fill="white"/>
<path d="M28.533 14.1109C28.3015 13.5131 27.9477 12.9702 27.4943 12.5169C27.0409 12.0637 26.4979 11.7102 25.9 11.4789C25.2003 11.2163 24.4611 11.0742 23.714 11.0589C22.751 11.0169 22.446 11.0049 20.004 11.0049C17.562 11.0049 17.249 11.0049 16.294 11.0589C15.5473 11.0734 14.8087 11.2155 14.11 11.4789C13.5119 11.7099 12.9687 12.0634 12.5153 12.5166C12.0619 12.9699 11.7082 13.5129 11.477 14.1109C11.2143 14.8105 11.0726 15.5497 11.058 16.2969C11.015 17.2589 11.002 17.5639 11.002 20.0069C11.002 22.4489 11.002 22.7599 11.058 23.7169C11.073 24.4649 11.214 25.2029 11.477 25.9039C11.7088 26.5016 12.0628 27.0445 12.5164 27.4977C12.9699 27.9509 13.513 28.3045 14.111 28.5359C14.8084 28.8091 15.5473 28.9613 16.296 28.9859C17.259 29.0279 17.564 29.0409 20.006 29.0409C22.448 29.0409 22.761 29.0409 23.716 28.9859C24.4631 28.9707 25.2022 28.829 25.902 28.5669C26.4997 28.3351 27.0426 27.9812 27.4959 27.5279C27.9493 27.0745 28.3031 26.5316 28.535 25.9339C28.798 25.2339 28.939 24.4959 28.954 23.7479C28.997 22.7859 29.01 22.4809 29.01 20.0379C29.01 17.5949 29.01 17.2849 28.954 16.3279C28.9423 15.5702 28.7998 14.8201 28.533 14.1109ZM27.315 23.6429C27.3084 24.2192 27.2033 24.7901 27.004 25.3309C26.8538 25.7198 26.6239 26.0729 26.329 26.3676C26.0342 26.6622 25.6809 26.8919 25.292 27.0419C24.7572 27.2402 24.1923 27.3454 23.622 27.3529C22.672 27.3969 22.404 27.4079 19.968 27.4079C17.53 27.4079 17.281 27.4079 16.313 27.3529C15.7425 27.346 15.1776 27.2408 14.643 27.0419C14.2528 26.8927 13.8983 26.6634 13.6024 26.3687C13.3065 26.074 13.0757 25.7204 12.925 25.3309C12.7284 24.7959 12.6233 24.2317 12.614 23.6619C12.571 22.7119 12.561 22.4439 12.561 20.0079C12.561 17.5709 12.561 17.3219 12.614 16.3529C12.6204 15.7769 12.7256 15.2063 12.925 14.6659C13.23 13.8769 13.855 13.2559 14.644 12.9539C15.1785 12.756 15.743 12.6508 16.313 12.6429C17.263 12.5999 17.531 12.5879 19.968 12.5879C22.405 12.5879 22.655 12.5879 23.622 12.6429C24.1924 12.6497 24.7573 12.755 25.292 12.9539C25.6809 13.1041 26.0342 13.334 26.329 13.6288C26.6238 13.9237 26.8537 14.2769 27.004 14.6659C27.201 15.2009 27.306 15.7659 27.315 16.3349C27.358 17.2859 27.369 17.5529 27.369 19.9899C27.369 22.4259 27.369 22.6879 27.326 23.6439H27.315V23.6429Z" fill="white"/>
</svg>
