<svg width="40" height="40" viewBox="0 0 40 40" fill="none" xmlns="http://www.w3.org/2000/svg">
<path d="M29 19.996C28.9997 18.3095 28.5255 16.6569 27.6315 15.2268C26.7375 13.7967 25.4596 12.6466 23.9436 11.9075C22.4275 11.1685 20.7343 10.8704 19.057 11.0471C17.3797 11.2238 15.7859 11.8683 14.4571 12.907C13.1284 13.9457 12.1182 15.3369 11.5418 16.9219C10.9655 18.5069 10.8461 20.222 11.1973 21.8716C11.5485 23.5212 12.3561 25.039 13.5281 26.2518C14.7002 27.4646 16.1894 28.3236 17.826 28.731V22.747H15.97V19.997H17.826V18.81C17.826 15.747 19.212 14.327 22.219 14.327C22.789 14.327 23.774 14.439 24.176 14.551V17.044C23.83 17.0171 23.483 17.0057 23.136 17.01C21.661 17.01 21.09 17.57 21.09 19.023V19.995H24.03L23.525 22.745H21.09V28.929C23.272 28.6628 25.2812 27.6072 26.7384 25.9614C28.1956 24.3155 29.0001 22.1933 29 19.995V19.996Z" fill="white"/>
</svg>
